<?xml version="1.0" encoding="utf-8"?>
<!-- Generator: Adobe Illustrator 22.0.0, SVG Export Plug-In . SVG Version: 6.00 Build 0)  -->
<svg version="1.1" id="Capa_1" xmlns="http://www.w3.org/2000/svg" xmlns:xlink="http://www.w3.org/1999/xlink" x="0px" y="0px"
	 viewBox="0 0 512 512" style="enable-background:new 0 0 512 512;" xml:space="preserve">
<style type="text/css">
	.st0{fill:#0E447E;}
</style>
<g>
	<path class="st0" d="M511.8,109c-1.6-17.5-17.1-30.5-34.6-28.9s-30.5,17.1-28.9,34.6c0,0.2,3.3,20-12,30.9
		c-20.3,14.5-39.6,17.2-53.3,17.7c7.7-37.5,11.6-76.1,11.6-115.5c0-17.4-14-31.6-31.4-31.9c-17.8-0.3-32.3,14.8-32.4,32.5
		c-0.1,114.9-16.6,220.9-90.9,316c-4.7-28.5-16.8-62-42.8-98.1c25.4-25.9,56.3-69.8,56-130.7c0-6.8-2.2-13.1-5.8-18.2
		c-5.8-8.2-15.4-13.6-26.2-13.5c-17.6,0.1-31.8,14.4-31.7,32c0.1,26.7-9.3,51.9-28.1,75c-0.2,0.3-0.5,0.6-0.7,0.9
		c-10.5-21.9-16.2-45.1-17.2-69.4c0-0.1,0-0.2,0-0.3c-0.2-6.1-0.2-12.4,0.2-18.6c1.1-18.1,6.8-36.9,12.3-51.2
		c5.5-14.4-0.1-30.7-13.4-38.5l-0.3-0.2C125.5,23.8,104,31.2,97,49.3C90.4,66,83.7,87.2,81.1,108.4C70.8,103,63.8,92.2,63.8,79.9
		C63.8,62.2,49.5,48,31.9,48S0,62.2,0,79.9c0,48.5,36.1,88.7,82.9,95c7,42.1,25.1,81.8,53.7,117.1c70.1,86.7,32.2,149.1,29.2,153.8
		c-9.8,13.2-7.6,31.4,4.7,42.4c6,5.3,13.5,7.9,21,7.9c8.1,0,16.1-3,22.3-8.9c31.1-29.3,58.8-59.9,82.8-91.6
		c15.4,7.8,41.4,17.8,73.5,17.8c17.7,0,37.1-3,57.6-11.2c16.4-6.5,24.4-25,17.8-41.4c-6.5-16.4-25-24.4-41.4-17.8
		c-29.7,11.8-55.8,5.6-71.2-0.6c8.7-14.2,34-88.2,42-111.4c42.5-3.7,85.9-17.9,108.3-42.4C514.8,154.2,512.2,113.5,511.8,109
		L511.8,109z"/>
</g>
</svg>
